# Blender v2.92.0 OBJ File: 'rts_props (1).blend'
# www.blender.org
mtllib grave1.mtl
o Tombstone1_Cube.002
v 0.858843 0.010262 -0.305950
v 0.858843 0.010262 0.279090
v -0.829306 0.010262 0.279090
v -0.829305 0.010262 -0.305950
v 0.858844 0.246621 -0.305950
v 0.858843 0.246621 0.279090
v -0.829306 0.246621 0.279090
v -0.829306 0.246621 -0.305950
v 0.717691 0.349931 -0.204370
v -0.688153 0.349931 -0.204371
v -0.688153 0.349931 0.177510
v 0.717690 0.349930 0.177511
v 0.717691 1.560480 -0.204370
v 0.717690 1.560480 0.177511
v -0.688153 1.560480 0.177511
v -0.688153 1.560480 -0.204370
v 0.577106 1.760480 -0.204370
v -0.547569 1.760480 -0.204370
v -0.547569 1.760480 0.177511
v 0.577106 1.760480 0.177511
v 0.239704 1.860479 -0.204370
v 0.239703 1.860479 0.177511
v -0.210166 1.860479 0.177511
v -0.210166 1.860480 -0.204370
v 0.858843 0.010262 0.279090
v -0.829306 0.010262 0.279090
v 0.858843 0.010262 -0.305950
v -0.829305 0.010262 -0.305950
v 0.858844 0.246621 -0.305950
v 0.858844 0.246621 -0.305950
v 0.858844 0.246621 -0.305950
v 0.858843 0.246621 0.279090
v 0.858843 0.246621 0.279090
v 0.858843 0.246621 0.279090
v -0.829306 0.246621 0.279090
v -0.829306 0.246621 0.279090
v -0.829306 0.246621 0.279090
v -0.829306 0.246621 -0.305950
v -0.829306 0.246621 -0.305950
v -0.829306 0.246621 -0.305950
v -0.688153 0.349931 -0.204371
v -0.688153 0.349931 -0.204371
v -0.688153 0.349931 -0.204371
v 0.717691 0.349931 -0.204370
v 0.717691 0.349931 -0.204370
v 0.717691 0.349931 -0.204370
v -0.688153 0.349931 0.177510
v -0.688153 0.349931 0.177510
v -0.688153 0.349931 0.177510
v 0.717690 0.349930 0.177511
v 0.717690 0.349930 0.177511
v 0.717690 0.349930 0.177511
v 0.717691 1.560480 -0.204370
v 0.717691 1.560480 -0.204370
v 0.717690 1.560480 0.177511
v 0.717690 1.560480 0.177511
v -0.688153 1.560480 0.177511
v -0.688153 1.560480 0.177511
v -0.688153 1.560480 -0.204370
v -0.688153 1.560480 -0.204370
v -0.547569 1.760480 -0.204370
v -0.547569 1.760480 -0.204370
v 0.577106 1.760480 -0.204370
v 0.577106 1.760480 -0.204370
v -0.547569 1.760480 0.177511
v -0.547569 1.760480 0.177511
v 0.577106 1.760480 0.177511
v 0.577106 1.760480 0.177511
v 0.239704 1.860479 -0.204370
v 0.239703 1.860479 0.177511
v -0.210166 1.860479 0.177511
v -0.210166 1.860480 -0.204370
vt 0.967741 0.105719
vt 0.753675 0.019235
vt 0.967741 0.019236
vt 0.718238 0.114280
vt 0.026912 0.017488
vt 0.718238 0.017487
vt 0.964799 0.021266
vt 0.755423 0.105855
vt 0.755423 0.021266
vt 0.026223 0.017317
vt 0.717548 0.114110
vt 0.026222 0.114110
vt 0.717548 0.114110
vt 0.084027 0.173442
vt 0.026222 0.114110
vt 0.755423 0.105855
vt 0.928445 0.168456
vt 0.791777 0.168456
vt 0.026912 0.114281
vt 0.660433 0.173613
vt 0.084716 0.173613
vt 0.753675 0.105719
vt 0.930573 0.169722
vt 0.790843 0.169722
vt 0.930573 0.169722
vt 0.790843 0.612661
vt 0.790843 0.169722
vt 0.084716 0.173613
vt 0.660433 0.669353
vt 0.084716 0.669353
vt 0.928445 0.168456
vt 0.791777 0.615010
vt 0.791777 0.168456
vt 0.659744 0.173442
vt 0.084027 0.669182
vt 0.084027 0.173442
vt 0.659744 0.669183
vt 0.141598 0.751086
vt 0.084027 0.669182
vt 0.928445 0.702499
vt 0.791778 0.702499
vt 0.660433 0.669353
vt 0.142288 0.751257
vt 0.084716 0.669353
vt 0.930573 0.702111
vt 0.790843 0.702112
vt 0.930573 0.830875
vt 0.790843 0.830875
vt 0.602862 0.751257
vt 0.280460 0.792208
vt 0.142288 0.751257
vt 0.928445 0.828440
vt 0.791778 0.828440
vt 0.602172 0.751086
vt 0.279771 0.792038
vt 0.141598 0.751086
vt 0.017712 0.993750
vt 0.241182 0.798472
vt 0.241182 0.993750
vt 0.753675 0.105719
vt 0.026912 0.114281
vt 0.964799 0.105855
vt 0.717548 0.017317
vt 0.659744 0.173442
vt 0.964799 0.105855
vt 0.718238 0.114280
vt 0.967741 0.105719
vt 0.930573 0.612661
vt 0.660433 0.173613
vt 0.928445 0.615009
vt 0.659744 0.669183
vt 0.602172 0.751086
vt 0.602862 0.751257
vt 0.464689 0.792208
vt 0.464000 0.792038
vt 0.017712 0.798472
vn 1.0000 0.0000 0.0000
vn 0.0000 0.0000 1.0000
vn -1.0000 0.0000 0.0000
vn 0.0000 0.0000 -1.0000
vn 0.0000 0.7011 -0.7130
vn -0.5906 0.8069 0.0000
vn 0.0000 0.7011 0.7130
vn 0.5906 0.8069 0.0000
vn 0.9534 0.3016 0.0000
vn -0.9534 0.3016 0.0000
vn -0.5835 0.8120 0.0000
vn 0.5835 0.8120 0.0000
vn 0.1436 0.9896 0.0000
vn -0.1436 0.9896 0.0000
usemtl Stone
s 1
f 29/1/1 2/2/1 27/3/1
f 33/4/2 26/5/2 25/6/2
f 3/7/3 38/8/3 4/9/3
f 1/10/4 39/11/4 30/12/4
f 8/13/5 45/14/5 31/15/5
f 40/16/6 48/17/6 41/18/6
f 37/19/7 51/20/7 47/21/7
f 34/22/8 46/23/8 50/24/8
f 9/25/1 55/26/9 52/27/1
f 49/28/2 56/29/2 57/30/2
f 11/31/3 59/32/10 43/33/3
f 42/34/4 53/35/4 44/36/4
f 60/37/4 64/38/4 13/39/4
f 59/32/10 66/40/11 61/41/11
f 14/42/2 65/43/2 15/44/2
f 55/26/9 17/45/12 67/46/12
f 67/46/12 21/47/13 70/48/13
f 68/49/2 71/50/2 19/51/2
f 61/41/11 23/52/14 72/53/14
f 62/54/4 69/55/4 63/56/4
f 72/57/14 70/58/13 21/59/13
f 29/1/1 32/60/1 2/2/1
f 33/4/2 35/61/2 26/5/2
f 3/7/3 36/62/3 38/8/3
f 1/10/4 28/63/4 39/11/4
f 8/13/5 10/64/5 45/14/5
f 40/16/6 7/65/6 48/17/6
f 37/19/7 6/66/7 51/20/7
f 34/22/8 5/67/8 46/23/8
f 9/25/1 54/68/9 55/26/9
f 49/28/2 12/69/2 56/29/2
f 11/31/3 58/70/10 59/32/10
f 42/34/4 16/71/4 53/35/4
f 60/37/4 18/72/4 64/38/4
f 59/32/10 58/70/10 66/40/11
f 14/42/2 20/73/2 65/43/2
f 55/26/9 54/68/9 17/45/12
f 67/46/12 17/45/12 21/47/13
f 68/49/2 22/74/2 71/50/2
f 61/41/11 66/40/11 23/52/14
f 62/54/4 24/75/4 69/55/4
f 72/57/14 23/76/14 70/58/13
